<svg version="1" xmlns="http://www.w3.org/2000/svg" width="253.333" height="253.333" viewBox="0 0 190.000000 190.000000"><path d="M11.2 54.8c-4.4.3-5.4.7-6.1 2.5-.4 1.2-.7 10.2-.7 19.9C4.5 87 4.1 95 3.7 95c-.4 0-.4.8.1 1.7.5 1 .9 3.9.8 6.5-.2 3.6.2 4.9 1.3 5.2.9.2 9.9.5 20.1.5 10.1.1 18.8.5 19.3 1 .4.4.7 6.1.5 12.5-.2 9.6 0 11.7 1.2 12.2.8.3 31.4.5 67.9.5 53.2-.2 66.6.1 67.3 1.1.8 1 1.1 1 1.5 0 .2-.6 1.1-1.2 2-1.2 1.2 0 1.2-.2-.1-1.6-.9-.8-1.6-2.1-1.6-2.7 0-.7-1.1-2.9-2.5-4.8-1.3-2-2.1-3.9-1.8-4.3.4-.3.2-.6-.3-.6-1.5 0-4.6-5.9-4-7.6.3-.7 1.2-1.4 2.1-1.4.8 0 1.5-.4 1.5-1 0-.5-.6-.7-1.4-.4-1.5.6-2.6-1.5-3.2-6.6-.7-5.7-.9-6.3-2.8-9.8-.9-1.9-1.5-4-1.2-4.7.2-.7-.2-2.2-.9-3.3-.8-1-1.2-2.1-1-2.4.3-.3-.6-2.7-2-5.4s-2.5-5.9-2.5-7.2c0-1.2-.6-2.2-1.3-2.2-.7 0-2.7-1.4-4.5-3-1.8-1.7-5.3-3.5-7.8-4.1-2.4-.6-4.4-1.5-4.4-2s-3.1-.8-7-.7c-3.8.2-7 .6-7 1 0 1.6-3.2.7-7.2-2-3.9-2.5-4.9-2.7-18.5-3.2-8.2-.3-14.3-.1-14.3.4s-5.7.6-13.7.2c-14.6-.8-58.1-1.3-67.1-.8z"/></svg>